<?xml version="1.0" encoding="UTF-8"?> <svg xmlns="http://www.w3.org/2000/svg" id="uuid-26553eb9-d85b-4733-b092-acf891374a66" viewBox="0 0 2015.8 166.553"><defs><style>.uuid-106d9398-d121-4095-8463-7bf97ecfd0f9{fill:#1d70ea;}</style></defs><g id="uuid-381b54e4-ba6a-4d8d-8df8-33c58a1cc57f"><g><path class="uuid-106d9398-d121-4095-8463-7bf97ecfd0f9" d="M169.685,5.529h-19.064V31.765c0,25.67-21.14,46.432-47.376,46.621H60.4C26.991,78.386,0,105,0,137.654v26.236H57.191v-26.425c0-25.67,21.14-46.432,47.376-46.621h42.846c33.22,0,60.211-26.425,60.211-59.078V5.529h-37.939Z"></path><circle class="uuid-106d9398-d121-4095-8463-7bf97ecfd0f9" cx="28.69" cy="28.697" r="28.69"></circle></g><g><path class="uuid-106d9398-d121-4095-8463-7bf97ecfd0f9" d="M255.438,163.841V5.65h54.011c12.655,0,23.051,2.112,31.186,6.328,8.136,4.22,14.159,9.87,18.079,16.949,3.916,7.083,5.875,15.141,5.875,24.181,0,8.587-1.921,16.462-5.762,23.615-3.842,7.158-9.831,12.881-17.966,17.175-8.136,4.294-18.608,6.441-31.412,6.441h-31.413v63.502h-22.599Zm22.599-82.259h30.508c11.9,0,20.374-2.599,25.424-7.797,5.045-5.198,7.57-12.09,7.57-20.677,0-9.188-2.525-16.272-7.57-21.243-5.05-4.972-13.524-7.458-25.424-7.458h-30.508v57.175Z"></path><path class="uuid-106d9398-d121-4095-8463-7bf97ecfd0f9" d="M420.859,166.553c-10.847,0-20.416-2.599-28.7-7.797-8.288-5.198-14.728-12.277-19.322-21.243-4.597-8.962-6.892-19.17-6.892-30.621,0-11.599,2.334-21.843,7.005-30.734,4.668-8.888,11.148-15.932,19.435-21.13,8.284-5.198,17.853-7.797,28.701-7.797,8.888,0,16.723,1.808,23.503,5.424,6.779,3.616,12.051,8.588,15.819,14.915l1.582-17.627h21.016v113.898h-20.791l-1.808-17.627c-3.467,5.275-8.439,9.982-14.915,14.124-6.48,4.142-14.689,6.214-24.633,6.214Zm3.616-19.661c7.08,0,13.334-1.656,18.757-4.972,5.424-3.312,9.605-7.984,12.542-14.011,2.938-6.024,4.407-13.029,4.407-21.017s-1.469-14.95-4.407-20.904c-2.938-5.95-7.119-10.621-12.542-14.011-5.423-3.39-11.677-5.085-18.757-5.085-6.78,0-12.881,1.695-18.305,5.085-5.424,3.39-9.643,8.061-12.656,14.011-3.015,5.953-4.52,12.92-4.52,20.904s1.504,14.993,4.52,21.017c3.012,6.028,7.232,10.699,12.656,14.011,5.423,3.315,11.525,4.972,18.305,4.972Z"></path><path class="uuid-106d9398-d121-4095-8463-7bf97ecfd0f9" d="M502.663,163.841V49.944h20.339l2.034,21.469c2.56-5.12,19.129-21.469,38.807-21.469h19.661v19.208h-19.661c-23.727,0-34.061,15.897-35.869,20.565-1.808,4.671-2.712,10.473-2.712,17.401v56.723h-22.599Z"></path><path class="uuid-106d9398-d121-4095-8463-7bf97ecfd0f9" d="M618.532,163.841c-7.083,0-13.259-1.13-18.531-3.39-5.275-2.26-9.343-6.024-12.203-11.3-2.864-5.272-4.294-12.429-4.294-21.469v-58.531h-19.661v-19.208h9.468c5.779,0,10.611-4.394,11.159-10.147l1.745-18.328h19.887v28.475h32.316v19.208h-32.316v58.757c0,6.48,1.356,10.886,4.068,13.22,2.712,2.337,7.38,3.503,14.011,3.503h13.107v19.209h-18.757Z"></path><path class="uuid-106d9398-d121-4095-8463-7bf97ecfd0f9" d="M665.085,28.475c-4.372,0-7.949-1.356-10.735-4.068-2.79-2.712-4.181-6.175-4.181-10.395,0-4.068,1.391-7.419,4.181-10.057,2.786-2.634,6.363-3.955,10.735-3.955,4.216,0,7.758,1.321,10.621,3.955,2.86,2.638,4.294,5.989,4.294,10.057,0,4.22-1.434,7.683-4.294,10.395-2.864,2.712-6.405,4.068-10.621,4.068Zm-11.526,135.367V49.944h22.599v113.898h-22.599Z"></path><path class="uuid-106d9398-d121-4095-8463-7bf97ecfd0f9" d="M741.243,166.553c-9.643,0-18.079-1.582-25.311-4.745s-12.959-7.606-17.175-13.334c-4.22-5.724-6.78-12.429-7.683-20.113h23.051c.752,3.616,2.221,6.931,4.407,9.943,2.182,3.015,5.198,5.424,9.039,7.232,3.842,1.807,8.397,2.712,13.673,2.712,4.972,0,9.075-.713,12.316-2.147,3.238-1.43,5.611-3.39,7.119-5.876,1.504-2.486,2.26-5.159,2.26-8.022,0-4.216-1.017-7.419-3.051-9.605-2.034-2.182-5.049-3.916-9.039-5.198-3.994-1.278-8.778-2.447-14.35-3.503-5.275-.904-10.36-2.147-15.254-3.729-4.898-1.582-9.266-3.577-13.107-5.989-3.842-2.408-6.893-5.459-9.152-9.152-2.26-3.69-3.39-8.249-3.39-13.673,0-6.476,1.73-12.316,5.198-17.514,3.464-5.198,8.397-9.265,14.802-12.203,6.402-2.938,13.973-4.407,22.712-4.407,12.655,0,22.825,3.016,30.508,9.04,7.684,6.028,12.204,14.541,13.559,25.537h-21.921c-.604-5.12-2.864-9.075-6.78-11.865-3.92-2.786-9.117-4.181-15.593-4.181s-11.451,1.282-14.915,3.842c-3.468,2.564-5.198,5.953-5.198,10.17,0,2.712,.978,5.123,2.938,7.231,1.956,2.112,4.859,3.881,8.7,5.311,3.842,1.434,8.549,2.751,14.125,3.955,7.983,1.508,15.141,3.39,21.469,5.65,6.328,2.26,11.374,5.576,15.142,9.943,3.764,4.372,5.65,10.621,5.65,18.757,.148,7.083-1.621,13.334-5.311,18.757-3.694,5.423-8.891,9.643-15.593,12.655-6.705,3.012-14.654,4.52-23.842,4.52Z"></path><path class="uuid-106d9398-d121-4095-8463-7bf97ecfd0f9" d="M814.46,28.475c-4.372,0-7.949-1.356-10.735-4.068-2.79-2.712-4.181-6.175-4.181-10.395,0-4.068,1.391-7.419,4.181-10.057,2.786-2.634,6.363-3.955,10.735-3.955,4.216,0,7.758,1.321,10.621,3.955,2.86,2.638,4.294,5.989,4.294,10.057,0,4.22-1.434,7.683-4.294,10.395-2.864,2.712-6.405,4.068-10.621,4.068Zm-11.526,135.367V49.944h22.599v113.898h-22.599Z"></path><path class="uuid-106d9398-d121-4095-8463-7bf97ecfd0f9" d="M897.171,166.553c-10.847,0-20.416-2.599-28.7-7.797-8.288-5.198-14.728-12.277-19.322-21.243-4.597-8.962-6.892-19.17-6.892-30.621,0-11.599,2.334-21.843,7.005-30.734,4.668-8.888,11.148-15.932,19.435-21.13,8.284-5.198,17.853-7.797,28.701-7.797,8.888,0,16.723,1.808,23.503,5.424,6.779,3.616,12.051,8.588,15.819,14.915l1.582-17.627h21.016v113.898h-20.791l-1.808-17.627c-3.467,5.275-8.439,9.982-14.915,14.124-6.48,4.142-14.689,6.214-24.633,6.214Zm3.616-19.661c7.08,0,13.334-1.656,18.757-4.972,5.424-3.312,9.605-7.984,12.542-14.011,2.938-6.024,4.407-13.029,4.407-21.017s-1.469-14.95-4.407-20.904c-2.938-5.95-7.119-10.621-12.542-14.011-5.423-3.39-11.677-5.085-18.757-5.085-6.78,0-12.881,1.695-18.305,5.085-5.424,3.39-9.643,8.061-12.656,14.011-3.015,5.953-4.52,12.92-4.52,20.904s1.504,14.993,4.52,21.017c3.012,6.028,7.232,10.699,12.656,14.011,5.423,3.315,11.525,4.972,18.305,4.972Z"></path><path class="uuid-106d9398-d121-4095-8463-7bf97ecfd0f9" d="M980.106,163.841V5.65h58.531c10.996,0,20.188,1.773,27.571,5.311,7.379,3.542,12.917,8.362,16.608,14.464,3.692,6.101,5.538,12.994,5.538,20.677,0,7.988-1.734,14.689-5.197,20.113-3.467,5.424-8.023,9.605-13.673,12.542-5.65,2.938-11.717,4.633-18.193,5.085l3.164-2.26c6.927,.152,13.255,1.998,18.982,5.536,5.724,3.542,10.245,8.249,13.56,14.124,3.312,5.876,4.971,12.355,4.971,19.435,0,8.136-1.958,15.48-5.874,22.034-3.92,6.554-9.719,11.716-17.402,15.48-7.684,3.767-17.101,5.65-28.248,5.65h-60.339Zm22.598-89.943h33.447c9.491,0,16.723-2.221,21.693-6.667,4.973-4.442,7.458-10.582,7.458-18.418,0-7.532-2.485-13.52-7.458-17.966-4.971-4.442-12.429-6.667-22.372-6.667h-32.768v49.717Zm0,71.186h34.803c9.943,0,17.661-2.295,23.163-6.893,5.498-4.594,8.249-11.109,8.249-19.548,0-8.284-2.826-14.915-8.476-19.887s-13.446-7.458-23.39-7.458h-34.351v53.785Z"></path><path class="uuid-106d9398-d121-4095-8463-7bf97ecfd0f9" d="M1106.433,163.841V1.13h22.6V163.841h-22.6Z"></path><path class="uuid-106d9398-d121-4095-8463-7bf97ecfd0f9" d="M1200.669,166.553c-10.699,0-20.303-2.486-28.813-7.458-8.514-4.972-15.219-11.938-20.113-20.904-4.897-8.962-7.345-19.322-7.345-31.073,0-12.052,2.486-22.56,7.458-31.526,4.972-8.962,11.751-15.932,20.339-20.904,8.588-4.972,18.228-7.458,28.927-7.458,10.847,0,20.487,2.486,28.926,7.458,8.436,4.972,15.102,11.903,20,20.791,4.894,8.891,7.344,19.361,7.344,31.412s-2.45,22.525-7.344,31.413c-4.898,8.891-11.639,15.819-20.226,20.791-8.588,4.972-18.305,7.458-29.152,7.458Zm0-19.435c6.176,0,11.787-1.504,16.837-4.52,5.045-3.012,9.113-7.493,12.202-13.446,3.086-5.95,4.633-13.369,4.633-22.26s-1.507-16.306-4.52-22.26c-3.015-5.95-7.044-10.431-12.09-13.446-5.05-3.012-10.586-4.52-16.609-4.52s-11.603,1.508-16.724,4.52c-5.123,3.015-9.23,7.497-12.317,13.446-3.09,5.953-4.632,13.372-4.632,22.26s1.543,16.31,4.632,22.26c3.086,5.953,7.154,10.434,12.204,13.446,5.046,3.015,10.509,4.52,16.384,4.52Z"></path><path class="uuid-106d9398-d121-4095-8463-7bf97ecfd0f9" d="M1325.414,166.553c-10.999,0-20.79-2.524-29.378-7.57s-15.333-12.013-20.226-20.904c-4.897-8.888-7.345-19.209-7.345-30.96,0-11.9,2.448-22.334,7.345-31.299,4.894-8.962,11.639-15.967,20.226-21.017,8.588-5.046,18.378-7.571,29.378-7.571,13.859,0,25.46,3.616,34.802,10.848,9.34,7.231,15.29,17.027,17.853,29.378h-23.503c-1.507-6.628-4.936-11.751-10.282-15.367-5.35-3.616-11.717-5.424-19.096-5.424-6.028,0-11.603,1.547-16.724,4.633-5.123,3.09-9.23,7.61-12.317,13.559-3.09,5.953-4.632,13.298-4.632,22.034,0,6.48,.904,12.242,2.712,17.288,1.808,5.049,4.255,9.304,7.345,12.768,3.086,3.467,6.666,6.066,10.735,7.797,4.067,1.734,8.361,2.599,12.881,2.599,4.972,0,9.452-.791,13.446-2.373,3.99-1.582,7.379-3.955,10.169-7.119,2.786-3.164,4.707-6.928,5.763-11.299h23.503c-2.563,12.055-8.513,21.734-17.853,29.039-9.342,7.31-20.943,10.96-34.802,10.96Z"></path><path class="uuid-106d9398-d121-4095-8463-7bf97ecfd0f9" d="M1393.209,163.841V1.13h22.6V163.841h-22.6Zm71.639,0l-52.43-62.372,47.458-51.525h27.344l-56.496,60.339v-16.949l62.599,70.508h-28.475Z"></path><path class="uuid-106d9398-d121-4095-8463-7bf97ecfd0f9" d="M1545.072,166.553c-10.999,0-20.79-2.524-29.378-7.57s-15.333-12.013-20.226-20.904c-4.897-8.888-7.345-19.209-7.345-30.96,0-11.9,2.448-22.334,7.345-31.299,4.894-8.962,11.639-15.967,20.226-21.017,8.588-5.046,18.378-7.571,29.378-7.571,13.859,0,25.46,3.616,34.802,10.848,9.34,7.231,15.29,17.027,17.853,29.378h-23.503c-1.507-6.628-4.936-11.751-10.282-15.367-5.35-3.616-11.717-5.424-19.096-5.424-6.028,0-11.603,1.547-16.724,4.633-5.123,3.09-9.23,7.61-12.317,13.559-3.09,5.953-4.632,13.298-4.632,22.034,0,6.48,.904,12.242,2.712,17.288,1.808,5.049,4.255,9.304,7.345,12.768,3.086,3.467,6.666,6.066,10.735,7.797,4.067,1.734,8.361,2.599,12.881,2.599,4.972,0,9.452-.791,13.446-2.373,3.99-1.582,7.379-3.955,10.169-7.119,2.786-3.164,4.707-6.928,5.763-11.299h23.503c-2.563,12.055-8.513,21.734-17.853,29.039-9.342,7.31-20.943,10.96-34.802,10.96Z"></path><path class="uuid-106d9398-d121-4095-8463-7bf97ecfd0f9" d="M1612.867,163.841V1.13h22.6V68.474c3.763-6.628,9-11.825,15.705-15.593,6.702-3.764,14.125-5.65,22.26-5.65,9.039,0,16.797,1.847,23.276,5.537,6.476,3.693,11.448,9.191,14.915,16.497,3.464,7.309,5.198,16.462,5.198,27.458v67.118h-22.372V99.209c0-10.696-2.26-18.792-6.78-24.294-4.52-5.498-11.226-8.249-20.113-8.249-6.028,0-11.451,1.434-16.271,4.294-4.823,2.864-8.664,7.045-11.525,12.542-2.864,5.501-4.294,12.168-4.294,20v60.339h-22.6Z"></path><path class="uuid-106d9398-d121-4095-8463-7bf97ecfd0f9" d="M1785.07,166.553c-10.848,0-20.416-2.599-28.7-7.797-8.288-5.198-14.728-12.277-19.322-21.243-4.598-8.962-6.893-19.17-6.893-30.621,0-11.599,2.335-21.843,7.007-30.734,4.668-8.888,11.147-15.932,19.434-21.13,8.284-5.198,17.853-7.797,28.701-7.797,8.888,0,16.723,1.808,23.503,5.424,6.779,3.616,12.051,8.588,15.818,14.915l1.582-17.627h21.017v113.898h-20.791l-1.808-17.627c-3.467,5.275-8.439,9.982-14.915,14.124-6.479,4.142-14.689,6.214-24.632,6.214Zm3.616-19.661c7.08,0,13.333-1.656,18.757-4.972,5.423-3.312,9.604-7.984,12.542-14.011,2.938-6.024,4.407-13.029,4.407-21.017s-1.469-14.95-4.407-20.904c-2.938-5.95-7.119-10.621-12.542-14.011-5.424-3.39-11.677-5.085-18.757-5.085-6.779,0-12.881,1.695-18.305,5.085-5.424,3.39-9.643,8.061-12.655,14.011-3.016,5.953-4.52,12.92-4.52,20.904s1.504,14.993,4.52,21.017c3.012,6.028,7.231,10.699,12.655,14.011,5.423,3.315,11.526,4.972,18.305,4.972Z"></path><path class="uuid-106d9398-d121-4095-8463-7bf97ecfd0f9" d="M1879.981,28.475c-4.372,0-7.948-1.356-10.735-4.068-2.79-2.712-4.181-6.175-4.181-10.395,0-4.068,1.391-7.419,4.181-10.057,2.786-2.634,6.363-3.955,10.735-3.955,4.216,0,7.758,1.321,10.621,3.955,2.86,2.638,4.294,5.989,4.294,10.057,0,4.22-1.434,7.683-4.294,10.395-2.863,2.712-6.405,4.068-10.621,4.068Zm-11.526,135.367V49.944h22.599v113.898h-22.599Z"></path><path class="uuid-106d9398-d121-4095-8463-7bf97ecfd0f9" d="M1912.072,163.841V49.944h20.34l1.356,19.435c3.616-6.78,8.736-12.165,15.367-16.158,6.628-3.99,14.237-5.989,22.825-5.989,9.039,0,16.797,1.808,23.276,5.424,6.476,3.616,11.526,9.078,15.142,16.384,3.616,7.309,5.423,16.462,5.423,27.458v67.344h-22.599V98.757c0-10.544-2.337-18.531-7.005-23.954-4.672-5.424-11.451-8.136-20.339-8.136-5.876,0-11.152,1.395-15.819,4.181-4.672,2.79-8.401,6.892-11.186,12.316-2.79,5.424-4.181,12.055-4.181,19.887v60.791h-22.6Z"></path></g></g></svg> 